<svg width="40" height="40" viewBox="0 0 40 40" fill="none" xmlns="http://www.w3.org/2000/svg">
<path d="M2.8732 12.3023C3.33642 7.08589 7.02098 2.70898 12.1376 2.70898C12.4719 2.71107 12.8057 2.73172 13.1376 2.77092C8.55295 3.3058 5.31751 7.43731 4.88544 12.3023C4.75206 13.519 4.854 14.75 5.18564 15.9283C5.95353 19.0756 7.657 21.9163 10.0717 24.076L20.7228 35.2082L20.6309 35.2916L8.05944 24.076C5.64477 21.9163 3.94122 19.0756 3.17341 15.9283C2.84176 14.7501 2.7399 13.5191 2.8732 12.3023Z" fill="white"/>
<path d="M20.3068 36C20.1308 36.0001 19.9611 35.9345 19.8309 35.816L7.47107 24.5995C4.94583 22.3475 3.16697 19.3793 2.37161 16.0905C2.02709 14.8279 1.92083 13.5121 2.05824 12.2106C2.59577 6.29288 6.78419 2 12.0254 2C15.467 2.01827 18.6325 3.88727 20.311 6.89192C22.0803 3.87886 25.3058 2.02043 28.7999 2.00072C34.0411 2.00072 38.2296 6.2936 38.767 12.2113C38.9044 13.5128 38.7982 14.8286 38.4537 16.0912C37.6581 19.3801 35.8794 22.3485 33.3542 24.601L20.7786 35.8201C20.6487 35.936 20.4808 36 20.3068 36ZM12.0254 3.41671C7.52646 3.41671 3.92738 7.17975 3.46668 12.3643C3.46459 12.3882 3.46114 12.4119 3.45632 12.4355C3.35035 13.5541 3.45027 14.6828 3.75098 15.7654C4.48053 18.775 6.11032 21.4906 8.4229 23.5501L20.311 34.339L32.4066 23.5473C34.7172 21.4883 36.3455 18.774 37.0744 15.7661C37.3761 14.6822 37.4756 13.5519 37.3677 12.4319C36.898 7.18033 33.2983 3.41729 28.8 3.41729C25.353 3.45002 22.2621 5.54801 20.9592 8.73948C20.8487 9.00192 20.5917 9.17249 20.3069 9.17249C20.0222 9.17249 19.7652 9.00185 19.6547 8.73948C18.4376 5.5734 15.417 3.46592 12.0254 3.41671Z" fill="#0D0C22"/>
<path d="M6.95442 14.0974C6.76651 14.0974 6.5863 14.0229 6.45343 13.89C6.32055 13.7572 6.24595 13.5769 6.24609 13.389C6.2507 9.47894 9.4193 6.31027 13.3295 6.30566C13.7207 6.30566 14.0378 6.62278 14.0378 7.01399C14.0378 7.4052 13.7207 7.72231 13.3295 7.72231C10.2014 7.72591 7.66641 10.2609 7.66281 13.389C7.66288 13.5769 7.58835 13.7571 7.45548 13.89C7.32253 14.0229 7.14232 14.0975 6.95442 14.0974Z" fill="#0D0C22"/>
</svg>
